<?xml version="1.0" encoding="UTF-8"?>
<!DOCTYPE svg PUBLIC "-//W3C//DTD SVG 1.1//EN" "http://www.w3.org/Graphics/SVG/1.1/DTD/svg11.dtd">
<!-- Creator: CorelDRAW X7 -->
<svg xmlns="http://www.w3.org/2000/svg" xml:space="preserve" width="0.32039in" height="0.244189in" version="1.1" style="shape-rendering:geometricPrecision; text-rendering:geometricPrecision; image-rendering:optimizeQuality; fill-rule:evenodd; clip-rule:evenodd"
viewBox="0 0 320 244"
 xmlns:xlink="http://www.w3.org/1999/xlink">
 <defs>
  <style type="text/css">
   <![CDATA[
    .fil0 {fill:black}
   ]]>
  </style>
 </defs>
 <g id="Layer_x0020_1">
  <metadata id="CorelCorpID_0Corel-Layer"/>
  <path class="fil0" d="M36 0c83,0 166,0 248,0 20,0 36,16 36,36 0,57 0,115 0,172 0,20 -16,36 -36,36 -82,0 -165,0 -248,0 -20,0 -36,-16 -36,-36 0,-57 0,-115 0,-172 0,-20 16,-36 36,-36zm162 186c-35,0 -63,-29 -63,-64 0,-35 28,-64 63,-64 36,0 64,29 64,64 0,35 -28,64 -64,64zm41 -64c0,-6 10,-6 10,0 0,28 -23,51 -51,51 -6,0 -6,-10 0,-10 23,0 41,-18 41,-41zm-82 0c0,7 -10,7 -10,0 0,-28 23,-51 51,-51 7,0 7,10 0,10 -22,0 -41,19 -41,41zm35 -12c0,-7 10,-7 10,0l0 8 8 0c7,0 7,10 0,10l-8 0 0 8c0,7 -10,7 -10,0l0 -8 -8 0c-7,0 -7,-10 0,-10l8 0 0 -8zm-141 -75c9,0 19,0 28,0 15,0 15,22 0,22 -9,0 -19,0 -28,0 -15,0 -15,-22 0,-22zm-40 37l119 0c15,-21 40,-35 68,-35 28,0 53,14 69,35l44 0 0 -36c0,-14 -12,-26 -26,-26 -83,0 -166,0 -249,0 -14,0 -25,12 -25,26l0 36zm300 101l-44 0c-16,21 -41,34 -69,34 -28,0 -53,-13 -68,-34l-119 0 0 35c0,15 11,26 25,26 83,0 166,0 249,0 14,0 26,-11 26,-26l0 -35zm-113 -126c42,0 75,34 75,75 0,42 -33,75 -75,75 -41,0 -75,-33 -75,-75 0,-41 34,-75 75,-75z"/>
 </g>
</svg>
