<?xml version="1.0" encoding="utf-8"?>
<!-- Generator: Adobe Illustrator 23.0.1, SVG Export Plug-In . SVG Version: 6.00 Build 0)  -->
<svg version="1.1" id="Layer_1" xmlns="http://www.w3.org/2000/svg" xmlns:xlink="http://www.w3.org/1999/xlink" x="0px" y="0px"
	 viewBox="0 0 512 512" style="enable-background:new 0 0 512 512;" xml:space="preserve">
<style type="text/css">
	.st0{fill:#010101;}
</style>
<title>01</title>
<g>
	<path class="st0" d="M281.3,227.2v-0.5c-0.1,0.2-0.3,0.4-0.4,0.5H281.3z"/>
	<path class="st0" d="M256,6C118.2,6,6,118.2,6,256s112.2,250,250,250s250-112.1,250-250S393.9,6,256,6z M193.5,368.4
		c0,2.3-1.9,4.2-4.2,4.2h-48.2c-2.3,0-4.2-1.9-4.2-4.2V206.7c0-2.3,1.9-4.2,4.2-4.2h48.2c2.3,0,4.2,1.9,4.2,4.2V368.4z M163.5,180.9
		c-16.7,0-30.3-13.6-30.3-30.3s13.6-30.3,30.3-30.3s30.3,13.6,30.3,30.3S180.2,180.9,163.5,180.9z M397.3,275v93.3
		c0,2.3-1.9,4.2-4.2,4.2H345c-2.3,0-4.2-1.9-4.2-4.2v-86.8c0-22.8-8.2-38.4-28.6-38.4c-15.6,0-24.9,10.5-29,20.7
		c-1.5,3.6-1.9,8.7-1.9,13.8v90.8c0,2.3-1.9,4.2-4.2,4.2h-48.2c-2.3,0-4.2-1.8-4.2-4.1c0,0,0,0,0,0c0.1-23.1,0.6-135.3,0.1-161.6
		c0-2.3,1.8-4.2,4.1-4.2c0,0,0,0,0.1,0h48.1c2.3,0,4.2,1.9,4.2,4.2v19.9c7.5-11.6,20.9-28.1,51-28.1
		C369.5,198.5,397.4,222.8,397.3,275L397.3,275z"/>
</g>
</svg>
